<svg width="220" height="80" viewBox="0 0 220 80" fill="none" xmlns="http://www.w3.org/2000/svg">
  <ellipse cx="50" cy="70" rx="13" ry="10" fill="#23273a"/>
  <ellipse cx="170" cy="70" rx="13" ry="10" fill="#23273a"/>
  <rect x="60" y="55" width="80" height="8" rx="4" fill="#0072ff"/>
  <rect x="90" y="40" width="40" height="12" rx="6" fill="#00eaff"/>
  <rect x="110" y="30" width="20" height="8" rx="4" fill="#b0b8c1"/>
  <rect x="120" y="22" width="12" height="6" rx="3" fill="#f3f4f6"/>
  <rect x="60" y="60" width="100" height="6" rx="3" fill="#181c25"/>
  <rect x="70" y="50" width="20" height="6" rx="3" fill="#00eaff"/>
  <rect x="130" y="50" width="20" height="6" rx="3" fill="#00eaff"/>
  <rect x="100" y="60" width="20" height="4" rx="2" fill="#0072ff"/>
  <circle cx="50" cy="70" r="7" fill="#10131a" stroke="#00eaff" stroke-width="2"/>
  <circle cx="170" cy="70" r="7" fill="#10131a" stroke="#00eaff" stroke-width="2"/>
  <rect x="60" y="65" width="100" height="2" rx="1" fill="#23273a"/>
</svg> 